# xmcd
#
# Track frame offsets:
#	150
#	21250
#	49324
#	74967
#	98929
#	118774
#	136904
#	158077
#	184292
#	211340
#	234677
#	257406
#	274274
#	294642
#	318416
#
# Disc length: 4588 seconds
#
# Revision: 0
# Processed by: cddbd v1.5.2PL0 Copyright (c) Steve Scherf et al.
# Submitted via: audiograbber 1.83.01
#
DISCID=ed11ea0f
DTITLE=Renato Zero - Anni 90
DYEAR=1999
DGENRE=Ballad
TTITLE0=Spalle al muro (live)
TTITLE1=Ave Maria
TTITLE2=Amando amando
TTITLE3=Nei giardini che nessuno sa
TTITLE4=I migliori anni della nostra vita
TTITLE5=L'impossibile vivere
TTITLE6=Cercami
TTITLE7=Dimmi chi dorme accanto a me
TTITLE8=La pace sia con te
TTITLE9=Si sta facendo notte
TTITLE10=Il coraggio delle idee
TTITLE11=Il mercante di stelle
TTITLE12=Tutti gli zeri del mondo
TTITLE13=Via dei Martiri
TTITLE14=Non cancellate il mio mondo
EXTD=
EXTT0=
EXTT1=
EXTT2=
EXTT3=
EXTT4=
EXTT5=
EXTT6=
EXTT7=
EXTT8=
EXTT9=
EXTT10=
EXTT11=
EXTT12=
EXTT13=
EXTT14=
PLAYORDER=
